<svg width="48" height="67" viewBox="0 0 48 67" fill="none" xmlns="http://www.w3.org/2000/svg">
<g clip-path="url(#clip0_75_135)">
<rect width="48" height="67" fill="#D9D9D9"/>
<path d="M0.103027 45.6805V5.62482L23.9515 21.2212L47.8969 5.62482V25.6527V45.6805L39.7907 54.2254V20.7924L24.001 30.7263L8.31434 20.6857L8.2092 54.2254L0.103027 45.6805Z" fill="#B49450" stroke="#B49450" stroke-miterlimit="10"/>
<path d="M12.7405 59.229V29.4712L24.005 36.1482L35.1623 29.4712V59.2562L28.1447 66.3767L28.2436 42.5303L23.9741 45.0739L19.8715 42.4738L19.9519 66.7406L12.7405 59.229Z" fill="#B49450" stroke="#B49450" stroke-miterlimit="10"/>
<path d="M11.8582 0V7.19157L23.9473 14.812L35.8612 7.40493V0H29.5012L29.526 3.94302L27.2644 5.62482V0H20.7622L20.8158 5.62482L18.3851 3.97022V0H11.8582Z" fill="#B49450"/>
</g>
<defs>
<clipPath id="clip0_75_135">
<rect width="48" height="67" fill="white"/>
</clipPath>
</defs>
</svg>
